<mxfile host="app.diagrams.net" modified="2022-01-05T11:15:15.412Z" agent="5.0 (Macintosh; Intel Mac OS X 10_15_7) AppleWebKit/605.1.15 (KHTML, like Gecko) Version/15.1 Safari/605.1.15" etag="MKQ8rMqWPfwVc3NCnro0" version="16.2.1" type="github">
  <diagram id="C5RBs43oDa-KdzZeNtuy" name="Page-1">
    <mxGraphModel dx="2190" dy="748" grid="1" gridSize="10" guides="1" tooltips="1" connect="1" arrows="1" fold="1" page="1" pageScale="1" pageWidth="827" pageHeight="1169" math="0" shadow="0">
      <root>
        <mxCell id="WIyWlLk6GJQsqaUBKTNV-0" />
        <mxCell id="WIyWlLk6GJQsqaUBKTNV-1" parent="WIyWlLk6GJQsqaUBKTNV-0" />
        <mxCell id="xZQrBa1oNE6Gv2RMSHfL-10" style="edgeStyle=orthogonalEdgeStyle;rounded=0;orthogonalLoop=1;jettySize=auto;html=1;exitX=0.5;exitY=1;exitDx=0;exitDy=0;entryX=0.5;entryY=0;entryDx=0;entryDy=0;" parent="WIyWlLk6GJQsqaUBKTNV-1" source="WIyWlLk6GJQsqaUBKTNV-3" target="xZQrBa1oNE6Gv2RMSHfL-9" edge="1">
          <mxGeometry relative="1" as="geometry" />
        </mxCell>
        <mxCell id="WIyWlLk6GJQsqaUBKTNV-3" value="stock.finstatement" style="rounded=1;whiteSpace=wrap;html=1;fontSize=12;glass=0;strokeWidth=1;shadow=0;" parent="WIyWlLk6GJQsqaUBKTNV-1" vertex="1">
          <mxGeometry x="-65" y="20" width="120" height="40" as="geometry" />
        </mxCell>
        <mxCell id="xZQrBa1oNE6Gv2RMSHfL-42" style="edgeStyle=orthogonalEdgeStyle;rounded=0;orthogonalLoop=1;jettySize=auto;html=1;exitX=0.5;exitY=1;exitDx=0;exitDy=0;entryX=0.5;entryY=0;entryDx=0;entryDy=0;" parent="WIyWlLk6GJQsqaUBKTNV-1" source="xZQrBa1oNE6Gv2RMSHfL-0" target="xZQrBa1oNE6Gv2RMSHfL-41" edge="1">
          <mxGeometry relative="1" as="geometry" />
        </mxCell>
        <mxCell id="xZQrBa1oNE6Gv2RMSHfL-0" value="資料庫取資料&lt;br&gt;stock.db.finstatement.get&lt;br&gt;(stockcode)" style="rounded=0;whiteSpace=wrap;html=1;" parent="WIyWlLk6GJQsqaUBKTNV-1" vertex="1">
          <mxGeometry x="45" y="910" width="170" height="50" as="geometry" />
        </mxCell>
        <mxCell id="xZQrBa1oNE6Gv2RMSHfL-1" value="現金流量表&lt;br&gt;stock.finstatement.report.cf&lt;br&gt;(res,stockcode)" style="rounded=0;whiteSpace=wrap;html=1;" parent="WIyWlLk6GJQsqaUBKTNV-1" vertex="1">
          <mxGeometry x="45" y="1200" width="170" height="60" as="geometry" />
        </mxCell>
        <mxCell id="xZQrBa1oNE6Gv2RMSHfL-8" style="edgeStyle=orthogonalEdgeStyle;rounded=0;orthogonalLoop=1;jettySize=auto;html=1;exitX=0.5;exitY=1;exitDx=0;exitDy=0;entryX=0.5;entryY=0;entryDx=0;entryDy=0;" parent="WIyWlLk6GJQsqaUBKTNV-1" source="xZQrBa1oNE6Gv2RMSHfL-4" target="xZQrBa1oNE6Gv2RMSHfL-7" edge="1">
          <mxGeometry relative="1" as="geometry" />
        </mxCell>
        <mxCell id="xZQrBa1oNE6Gv2RMSHfL-4" value="綜合損益表&lt;br&gt;stock.finstatement.report.pl&lt;br&gt;(res,stockcode)" style="rounded=0;whiteSpace=wrap;html=1;" parent="WIyWlLk6GJQsqaUBKTNV-1" vertex="1">
          <mxGeometry x="250" y="1200" width="170" height="60" as="geometry" />
        </mxCell>
        <mxCell id="xZQrBa1oNE6Gv2RMSHfL-7" value="毛利、利益、淨利、純益率&lt;span style=&quot;text-align: left&quot;&gt;stock.finstatement.tidy.pl.margin&lt;br&gt;(stockcode)&lt;br&gt;&lt;/span&gt;" style="rounded=0;whiteSpace=wrap;html=1;" parent="WIyWlLk6GJQsqaUBKTNV-1" vertex="1">
          <mxGeometry x="235" y="1290" width="200" height="50" as="geometry" />
        </mxCell>
        <mxCell id="7GuAAcghmd6aFa6vQZZz-3" style="edgeStyle=orthogonalEdgeStyle;rounded=0;orthogonalLoop=1;jettySize=auto;html=1;" edge="1" parent="WIyWlLk6GJQsqaUBKTNV-1" source="xZQrBa1oNE6Gv2RMSHfL-9" target="xZQrBa1oNE6Gv2RMSHfL-12">
          <mxGeometry relative="1" as="geometry" />
        </mxCell>
        <mxCell id="xZQrBa1oNE6Gv2RMSHfL-9" value="股票代號&lt;br&gt;stockcode" style="shape=parallelogram;html=1;strokeWidth=2;perimeter=parallelogramPerimeter;whiteSpace=wrap;rounded=1;arcSize=12;size=0.23;fontFamily=Helvetica;fontSize=12;fontColor=rgb(0, 0, 0);align=center;strokeColor=rgb(0, 0, 0);fillColor=rgb(255, 255, 255);" parent="WIyWlLk6GJQsqaUBKTNV-1" vertex="1">
          <mxGeometry x="-55" y="160" width="100" height="40" as="geometry" />
        </mxCell>
        <mxCell id="xZQrBa1oNE6Gv2RMSHfL-40" style="edgeStyle=orthogonalEdgeStyle;rounded=0;orthogonalLoop=1;jettySize=auto;html=1;exitX=0.5;exitY=1;exitDx=0;exitDy=0;" parent="WIyWlLk6GJQsqaUBKTNV-1" source="xZQrBa1oNE6Gv2RMSHfL-12" target="xZQrBa1oNE6Gv2RMSHfL-27" edge="1">
          <mxGeometry relative="1" as="geometry" />
        </mxCell>
        <mxCell id="xZQrBa1oNE6Gv2RMSHfL-12" value="網路取資料&lt;br&gt;py.stock.finstatement.parse&lt;br&gt;(stock,year,quarter)" style="rounded=0;whiteSpace=wrap;html=1;" parent="WIyWlLk6GJQsqaUBKTNV-1" vertex="1">
          <mxGeometry x="-115" y="320" width="220" height="50" as="geometry" />
        </mxCell>
        <mxCell id="xZQrBa1oNE6Gv2RMSHfL-16" value="" style="edgeStyle=orthogonalEdgeStyle;rounded=0;orthogonalLoop=1;jettySize=auto;html=1;" parent="WIyWlLk6GJQsqaUBKTNV-1" source="xZQrBa1oNE6Gv2RMSHfL-13" target="xZQrBa1oNE6Gv2RMSHfL-15" edge="1">
          <mxGeometry relative="1" as="geometry" />
        </mxCell>
        <mxCell id="xZQrBa1oNE6Gv2RMSHfL-13" value="現金流量表分析&lt;br&gt;stock.finstatement.analysis.cf&lt;br&gt;(res)" style="rounded=0;whiteSpace=wrap;html=1;" parent="WIyWlLk6GJQsqaUBKTNV-1" vertex="1">
          <mxGeometry x="-210" y="1200" width="220" height="60" as="geometry" />
        </mxCell>
        <mxCell id="xZQrBa1oNE6Gv2RMSHfL-15" value="現金流量階段熱力圖&lt;br&gt;heatmap" style="whiteSpace=wrap;html=1;rounded=0;" parent="WIyWlLk6GJQsqaUBKTNV-1" vertex="1">
          <mxGeometry x="-270" y="1300" width="120" height="40" as="geometry" />
        </mxCell>
        <mxCell id="xZQrBa1oNE6Gv2RMSHfL-22" style="edgeStyle=orthogonalEdgeStyle;rounded=0;orthogonalLoop=1;jettySize=auto;html=1;entryX=0;entryY=0.5;entryDx=0;entryDy=0;" parent="WIyWlLk6GJQsqaUBKTNV-1" source="xZQrBa1oNE6Gv2RMSHfL-20" target="xZQrBa1oNE6Gv2RMSHfL-13" edge="1">
          <mxGeometry relative="1" as="geometry" />
        </mxCell>
        <mxCell id="xZQrBa1oNE6Gv2RMSHfL-20" value="現金流量階段&lt;br&gt;hash.stock.finstatement.cf_state" style="whiteSpace=wrap;html=1;rounded=0;" parent="WIyWlLk6GJQsqaUBKTNV-1" vertex="1">
          <mxGeometry x="-390" y="1120" width="210" height="40" as="geometry" />
        </mxCell>
        <mxCell id="xZQrBa1oNE6Gv2RMSHfL-37" style="edgeStyle=orthogonalEdgeStyle;rounded=0;orthogonalLoop=1;jettySize=auto;html=1;exitX=0.5;exitY=1;exitDx=0;exitDy=0;exitPerimeter=0;entryX=0.5;entryY=0;entryDx=0;entryDy=0;" parent="WIyWlLk6GJQsqaUBKTNV-1" source="xZQrBa1oNE6Gv2RMSHfL-24" target="xZQrBa1oNE6Gv2RMSHfL-0" edge="1">
          <mxGeometry relative="1" as="geometry" />
        </mxCell>
        <mxCell id="xZQrBa1oNE6Gv2RMSHfL-24" value="stock.finstatement.db" style="shape=cylinder3;whiteSpace=wrap;html=1;boundedLbl=1;backgroundOutline=1;size=15;" parent="WIyWlLk6GJQsqaUBKTNV-1" vertex="1">
          <mxGeometry x="-80" y="750" width="195" height="80" as="geometry" />
        </mxCell>
        <mxCell id="7GuAAcghmd6aFa6vQZZz-4" style="edgeStyle=orthogonalEdgeStyle;rounded=0;orthogonalLoop=1;jettySize=auto;html=1;exitX=0.55;exitY=0.95;exitDx=0;exitDy=0;exitPerimeter=0;entryX=0.5;entryY=0;entryDx=0;entryDy=0;entryPerimeter=0;" edge="1" parent="WIyWlLk6GJQsqaUBKTNV-1" source="xZQrBa1oNE6Gv2RMSHfL-25" target="xZQrBa1oNE6Gv2RMSHfL-24">
          <mxGeometry relative="1" as="geometry" />
        </mxCell>
        <mxCell id="7GuAAcghmd6aFa6vQZZz-5" style="edgeStyle=orthogonalEdgeStyle;rounded=0;orthogonalLoop=1;jettySize=auto;html=1;exitX=0.875;exitY=0.5;exitDx=0;exitDy=0;exitPerimeter=0;entryX=1;entryY=0.75;entryDx=0;entryDy=0;" edge="1" parent="WIyWlLk6GJQsqaUBKTNV-1" source="xZQrBa1oNE6Gv2RMSHfL-25" target="xZQrBa1oNE6Gv2RMSHfL-0">
          <mxGeometry relative="1" as="geometry" />
        </mxCell>
        <mxCell id="xZQrBa1oNE6Gv2RMSHfL-25" value="TWSE" style="ellipse;shape=cloud;whiteSpace=wrap;html=1;" parent="WIyWlLk6GJQsqaUBKTNV-1" vertex="1">
          <mxGeometry x="-90" y="600" width="124" height="80" as="geometry" />
        </mxCell>
        <mxCell id="xZQrBa1oNE6Gv2RMSHfL-69" style="edgeStyle=orthogonalEdgeStyle;rounded=0;orthogonalLoop=1;jettySize=auto;html=1;exitX=0.5;exitY=1;exitDx=0;exitDy=0;" parent="WIyWlLk6GJQsqaUBKTNV-1" source="xZQrBa1oNE6Gv2RMSHfL-27" target="xZQrBa1oNE6Gv2RMSHfL-68" edge="1">
          <mxGeometry relative="1" as="geometry" />
        </mxCell>
        <mxCell id="xZQrBa1oNE6Gv2RMSHfL-27" value="&lt;span&gt;單檔股票、但所有年季&lt;br&gt;loops.yq.py.stock.finstatement.parse&lt;br&gt;(stock,posfix=F)&lt;br&gt;&lt;/span&gt;" style="rounded=0;whiteSpace=wrap;html=1;fontFamily=Helvetica;fontSize=12;fontColor=rgb(0, 0, 0);align=center;strokeColor=rgb(0, 0, 0);fillColor=rgb(255, 255, 255);" parent="WIyWlLk6GJQsqaUBKTNV-1" vertex="1">
          <mxGeometry x="-125" y="400" width="240" height="60" as="geometry" />
        </mxCell>
        <mxCell id="xZQrBa1oNE6Gv2RMSHfL-48" style="edgeStyle=orthogonalEdgeStyle;rounded=0;orthogonalLoop=1;jettySize=auto;html=1;exitX=0.5;exitY=1;exitDx=0;exitDy=0;" parent="WIyWlLk6GJQsqaUBKTNV-1" source="xZQrBa1oNE6Gv2RMSHfL-41" target="xZQrBa1oNE6Gv2RMSHfL-1" edge="1">
          <mxGeometry relative="1" as="geometry">
            <Array as="points">
              <mxPoint x="130" y="1090" />
              <mxPoint x="130" y="1090" />
            </Array>
          </mxGeometry>
        </mxCell>
        <mxCell id="xZQrBa1oNE6Gv2RMSHfL-49" style="edgeStyle=orthogonalEdgeStyle;rounded=0;orthogonalLoop=1;jettySize=auto;html=1;exitX=0.5;exitY=1;exitDx=0;exitDy=0;" parent="WIyWlLk6GJQsqaUBKTNV-1" source="xZQrBa1oNE6Gv2RMSHfL-41" target="xZQrBa1oNE6Gv2RMSHfL-4" edge="1">
          <mxGeometry relative="1" as="geometry" />
        </mxCell>
        <mxCell id="xZQrBa1oNE6Gv2RMSHfL-50" style="edgeStyle=orthogonalEdgeStyle;rounded=0;orthogonalLoop=1;jettySize=auto;html=1;exitX=0.5;exitY=1;exitDx=0;exitDy=0;entryX=0.5;entryY=0;entryDx=0;entryDy=0;" parent="WIyWlLk6GJQsqaUBKTNV-1" source="xZQrBa1oNE6Gv2RMSHfL-41" target="xZQrBa1oNE6Gv2RMSHfL-13" edge="1">
          <mxGeometry relative="1" as="geometry" />
        </mxCell>
        <mxCell id="xZQrBa1oNE6Gv2RMSHfL-53" style="edgeStyle=orthogonalEdgeStyle;rounded=0;orthogonalLoop=1;jettySize=auto;html=1;exitX=0.5;exitY=1;exitDx=0;exitDy=0;" parent="WIyWlLk6GJQsqaUBKTNV-1" source="xZQrBa1oNE6Gv2RMSHfL-41" target="xZQrBa1oNE6Gv2RMSHfL-52" edge="1">
          <mxGeometry relative="1" as="geometry" />
        </mxCell>
        <mxCell id="xZQrBa1oNE6Gv2RMSHfL-41" value="個股財報&lt;br&gt;res" style="rounded=0;whiteSpace=wrap;html=1;" parent="WIyWlLk6GJQsqaUBKTNV-1" vertex="1">
          <mxGeometry x="45" y="1010" width="170" height="40" as="geometry" />
        </mxCell>
        <mxCell id="xZQrBa1oNE6Gv2RMSHfL-63" style="edgeStyle=orthogonalEdgeStyle;rounded=0;orthogonalLoop=1;jettySize=auto;html=1;exitX=0.5;exitY=1;exitDx=0;exitDy=0;" parent="WIyWlLk6GJQsqaUBKTNV-1" source="xZQrBa1oNE6Gv2RMSHfL-51" target="xZQrBa1oNE6Gv2RMSHfL-62" edge="1">
          <mxGeometry relative="1" as="geometry" />
        </mxCell>
        <mxCell id="xZQrBa1oNE6Gv2RMSHfL-51" value="網路財報一次性下載stock.finstatement.parse.download_allfiles&lt;br&gt;(year,quarter)" style="rounded=0;whiteSpace=wrap;html=1;" parent="WIyWlLk6GJQsqaUBKTNV-1" vertex="1">
          <mxGeometry x="245" y="20" width="270" height="55" as="geometry" />
        </mxCell>
        <mxCell id="xZQrBa1oNE6Gv2RMSHfL-56" style="edgeStyle=orthogonalEdgeStyle;rounded=0;orthogonalLoop=1;jettySize=auto;html=1;exitX=0.5;exitY=1;exitDx=0;exitDy=0;" parent="WIyWlLk6GJQsqaUBKTNV-1" source="xZQrBa1oNE6Gv2RMSHfL-52" target="xZQrBa1oNE6Gv2RMSHfL-55" edge="1">
          <mxGeometry relative="1" as="geometry" />
        </mxCell>
        <mxCell id="xZQrBa1oNE6Gv2RMSHfL-52" value="ROA、ROE&lt;br&gt;stock.finstatement.tidy.ROEandROA&lt;br&gt;(res)" style="rounded=0;whiteSpace=wrap;html=1;" parent="WIyWlLk6GJQsqaUBKTNV-1" vertex="1">
          <mxGeometry x="470" y="1200" width="225" height="60" as="geometry" />
        </mxCell>
        <mxCell id="xZQrBa1oNE6Gv2RMSHfL-54" value="僅ROE拆分與ROA&lt;br&gt;ratio" style="whiteSpace=wrap;html=1;rounded=0;" parent="WIyWlLk6GJQsqaUBKTNV-1" vertex="1">
          <mxGeometry x="522.5" y="1370" width="120" height="40" as="geometry" />
        </mxCell>
        <mxCell id="xZQrBa1oNE6Gv2RMSHfL-57" style="edgeStyle=orthogonalEdgeStyle;rounded=0;orthogonalLoop=1;jettySize=auto;html=1;exitX=0.5;exitY=1;exitDx=0;exitDy=0;entryX=0.5;entryY=0;entryDx=0;entryDy=0;" parent="WIyWlLk6GJQsqaUBKTNV-1" source="xZQrBa1oNE6Gv2RMSHfL-55" target="xZQrBa1oNE6Gv2RMSHfL-54" edge="1">
          <mxGeometry relative="1" as="geometry" />
        </mxCell>
        <mxCell id="xZQrBa1oNE6Gv2RMSHfL-55" value="全部、含分子分母&lt;br&gt;detail" style="whiteSpace=wrap;html=1;rounded=0;" parent="WIyWlLk6GJQsqaUBKTNV-1" vertex="1">
          <mxGeometry x="522.5" y="1280" width="120" height="40" as="geometry" />
        </mxCell>
        <mxCell id="xZQrBa1oNE6Gv2RMSHfL-65" style="edgeStyle=orthogonalEdgeStyle;rounded=0;orthogonalLoop=1;jettySize=auto;html=1;entryX=1;entryY=0.5;entryDx=0;entryDy=0;" parent="WIyWlLk6GJQsqaUBKTNV-1" source="xZQrBa1oNE6Gv2RMSHfL-59" target="xZQrBa1oNE6Gv2RMSHfL-12" edge="1">
          <mxGeometry relative="1" as="geometry">
            <Array as="points">
              <mxPoint x="105" y="340" />
            </Array>
          </mxGeometry>
        </mxCell>
        <mxCell id="xZQrBa1oNE6Gv2RMSHfL-70" style="edgeStyle=orthogonalEdgeStyle;rounded=0;orthogonalLoop=1;jettySize=auto;html=1;" parent="WIyWlLk6GJQsqaUBKTNV-1" source="xZQrBa1oNE6Gv2RMSHfL-59" target="xZQrBa1oNE6Gv2RMSHfL-68" edge="1">
          <mxGeometry relative="1" as="geometry">
            <Array as="points">
              <mxPoint x="278" y="510" />
            </Array>
          </mxGeometry>
        </mxCell>
        <mxCell id="xZQrBa1oNE6Gv2RMSHfL-59" value="Hash.TWSE各公司財報網站分類字串.csv" style="strokeWidth=2;html=1;shape=mxgraph.flowchart.document2;whiteSpace=wrap;size=0.25;fontFamily=Helvetica;fontSize=12;fontColor=rgb(0, 0, 0);align=center;strokeColor=rgb(0, 0, 0);fillColor=rgb(255, 255, 255);" parent="WIyWlLk6GJQsqaUBKTNV-1" vertex="1">
          <mxGeometry x="215" y="195" width="125" height="70" as="geometry" />
        </mxCell>
        <mxCell id="xZQrBa1oNE6Gv2RMSHfL-64" style="edgeStyle=orthogonalEdgeStyle;rounded=0;orthogonalLoop=1;jettySize=auto;html=1;exitX=0.5;exitY=1;exitDx=0;exitDy=0;entryX=0.5;entryY=0;entryDx=0;entryDy=0;" parent="WIyWlLk6GJQsqaUBKTNV-1" source="xZQrBa1oNE6Gv2RMSHfL-62" target="xZQrBa1oNE6Gv2RMSHfL-59" edge="1">
          <mxGeometry relative="1" as="geometry" />
        </mxCell>
        <mxCell id="xZQrBa1oNE6Gv2RMSHfL-62" value="取得每檔股票之唯一性網址stock.finstatement.tidy.download_allfiles&lt;br&gt;(year,quarter)" style="rounded=0;whiteSpace=wrap;html=1;" parent="WIyWlLk6GJQsqaUBKTNV-1" vertex="1">
          <mxGeometry x="245" y="110" width="270" height="50" as="geometry" />
        </mxCell>
        <mxCell id="xZQrBa1oNE6Gv2RMSHfL-71" style="edgeStyle=orthogonalEdgeStyle;rounded=0;orthogonalLoop=1;jettySize=auto;html=1;entryX=0.685;entryY=0.125;entryDx=0;entryDy=0;entryPerimeter=0;" parent="WIyWlLk6GJQsqaUBKTNV-1" source="xZQrBa1oNE6Gv2RMSHfL-68" target="xZQrBa1oNE6Gv2RMSHfL-25" edge="1">
          <mxGeometry relative="1" as="geometry" />
        </mxCell>
        <mxCell id="xZQrBa1oNE6Gv2RMSHfL-68" value="&lt;span&gt;所有股票、、所有年季&lt;br&gt;loops.syq.py.stock.finstatement.parse&lt;br&gt;()&lt;br&gt;&lt;/span&gt;" style="rounded=0;whiteSpace=wrap;html=1;fontFamily=Helvetica;fontSize=12;fontColor=rgb(0, 0, 0);align=center;strokeColor=rgb(0, 0, 0);fillColor=rgb(255, 255, 255);" parent="WIyWlLk6GJQsqaUBKTNV-1" vertex="1">
          <mxGeometry x="-125" y="485" width="240" height="60" as="geometry" />
        </mxCell>
      </root>
    </mxGraphModel>
  </diagram>
</mxfile>
